<svg xmlns="http://www.w3.org/2000/svg" viewBox="0 0 120 120">
  <circle cx="60" cy="60" r="58" fill="white" stroke="#b91c1c" stroke-width="4"/>
  <path d="M38 35C42 30 50 30 52 35C54 40 50 45 48 50C46 55 44 60 42 65C40 70 36 68 34 63C32 58 34 50 36 45C38 40 36 38 38 35Z" fill="#b91c1c"/>
  <path d="M60 35C65 30 72 32 74 36C76 40 72 44 70 48C68 52 66 58 68 62C70 66 66 70 62 68C58 66 56 60 56 55C56 50 58 45 60 40C62 37 58 37 60 35Z" fill="#b91c1c"/>
  <path d="M75 40C80 38 85 42 88 45C91 48 90 54 86 56C82 58 78 55 76 52C74 49 72 42 75 40Z" fill="#b91c1c"/>
  <ellipse cx="85" cy="75" rx="6" ry="4" fill="#b91c1c"/>
</svg>